<svg id="Layer_1" data-name="Layer 1" xmlns="http://www.w3.org/2000/svg" viewBox="0 0 576.35 166.9"><defs><style>.cls-1{fill:#4c7f6e;}.cls-2{fill:#88b0a6;}</style></defs><path class="cls-1" d="M29,81.84a21.3,21.3,0,1,1,0-42.6,21.3,21.3,0,1,1,0,42.6Zm0-31.91A10.62,10.62,0,1,0,39.85,60.54,10.74,10.74,0,0,0,29,49.93Z"/><path class="cls-1" d="M123.61,153.58H5.46a5.34,5.34,0,1,1,0-10.68H123.61a5.34,5.34,0,1,1,0,10.68Z"/><path class="cls-2" d="M183.17,100.87h26.68a3.12,3.12,0,0,1,2.17.81,2.63,2.63,0,0,1,.9,2,2.52,2.52,0,0,1-.9,2,3.19,3.19,0,0,1-2.17.77H185.72l.67-1.25v18.57l-.75-.81h20.84a3.12,3.12,0,0,1,2.17.81,2.62,2.62,0,0,1,.9,2,2.54,2.54,0,0,1-.9,2,3.24,3.24,0,0,1-2.17.77H185.87l.52-.66v19l-.45-.52h23.91a3,3,0,0,1,2.17.88,2.72,2.72,0,0,1,.9,2,2.63,2.63,0,0,1-.9,2,3.12,3.12,0,0,1-2.17.81H183.17a2.91,2.91,0,0,1-2.14-.88,3,3,0,0,1-.86-2.13V103.81a2.82,2.82,0,0,1,.86-2.09A2.93,2.93,0,0,1,183.17,100.87Z"/><path class="cls-2" d="M253.39,97.94a2.94,2.94,0,0,1,2.14.84,2.84,2.84,0,0,1,.86,2.09v48.35a3,3,0,0,1-.86,2.13,3.08,3.08,0,0,1-4.31,0,3,3,0,0,1-.82-2.13v-7l1.42-.51a7.42,7.42,0,0,1-1.12,3.7,14.18,14.18,0,0,1-3.08,3.63,16.48,16.48,0,0,1-4.61,2.79,14.88,14.88,0,0,1-5.73,1.1,16.8,16.8,0,0,1-9.11-2.57,18.11,18.11,0,0,1-6.44-7,23.37,23.37,0,0,1,0-20.47,17.86,17.86,0,0,1,6.41-7,16.59,16.59,0,0,1,9-2.54,17,17,0,0,1,5.92,1,16.1,16.1,0,0,1,4.84,2.79,14.47,14.47,0,0,1,3.26,3.89,8.68,8.68,0,0,1,1.2,4.25l-1.95-.44v-24a2.88,2.88,0,0,1,.82-2.09A2.92,2.92,0,0,1,253.39,97.94ZM238,147.53a11.92,11.92,0,0,0,6.63-1.87,12.63,12.63,0,0,0,4.49-5.14,17.67,17.67,0,0,0,0-14.78,12.71,12.71,0,0,0-4.49-5.1,12,12,0,0,0-6.63-1.87,11.84,11.84,0,0,0-6.56,1.87,13,13,0,0,0-4.54,5.1,17.31,17.31,0,0,0,0,14.71,13.12,13.12,0,0,0,4.54,5.17A11.55,11.55,0,0,0,238,147.53Z"/><path class="cls-2" d="M297.69,114.3a2.9,2.9,0,0,1,2.17.84,2.87,2.87,0,0,1,.82,2.09v20q0,7.41-4.23,11.48t-11.8,4.07q-7.5,0-11.73-4.07t-4.24-11.48v-20a2.82,2.82,0,0,1,.86-2.09,3,3,0,0,1,2.14-.84,2.86,2.86,0,0,1,3,2.93v20q0,5,2.62,7.56t7.35,2.56c3.24,0,5.73-.85,7.45-2.56s2.59-4.23,2.59-7.56v-20a2.78,2.78,0,0,1,.86-2.09A2.93,2.93,0,0,1,297.69,114.3Z"/><path class="cls-2" d="M309.45,132.34a3,3,0,0,1-2.14-.84,2.9,2.9,0,0,1-.86-2.16,2.72,2.72,0,0,1,.86-2.06,3.05,3.05,0,0,1,2.14-.8h15.14a2.84,2.84,0,0,1,2.13.88,2.89,2.89,0,0,1,.87,2.12,2.68,2.68,0,0,1-.87,2.06,3,3,0,0,1-2.13.8Z"/><path class="cls-2" d="M357.42,113.34a16.59,16.59,0,0,1,6,1.07,17.39,17.39,0,0,1,4.84,2.75,15.14,15.14,0,0,1,3.22,3.52,6.54,6.54,0,0,1,1.16,3.45l-1.42-.88v-6.38a2.85,2.85,0,0,1,.82-2.09,2.88,2.88,0,0,1,2.17-.85,2.93,2.93,0,0,1,2.14.85,2.81,2.81,0,0,1,.86,2.09V149a18,18,0,0,1-2.58,10,16.1,16.1,0,0,1-6.94,5.94,23.19,23.19,0,0,1-9.74,2,23.55,23.55,0,0,1-4.95-.59,30.33,30.33,0,0,1-4.79-1.43,6,6,0,0,1-2.7-1.72,3.09,3.09,0,0,1-1.39-1.65,1.91,1.91,0,0,1,.34-1.73,2,2,0,0,1,1.76-1,7.71,7.71,0,0,1,2.74.66c.45.14,1.16.39,2.13.73a29.63,29.63,0,0,0,3.3.92,17.49,17.49,0,0,0,3.64.4q6.36,0,9.78-3.26a11.42,11.42,0,0,0,3.41-8.62v-6.83l.82.37a9.24,9.24,0,0,1-1.84,3.81,14.82,14.82,0,0,1-3.37,3.12,16.49,16.49,0,0,1-4.38,2.13,15.94,15.94,0,0,1-4.87.77,17.77,17.77,0,0,1-9.45-2.57,18.34,18.34,0,0,1-6.63-7,22.69,22.69,0,0,1,0-20.47,18.1,18.1,0,0,1,6.6-7A17.56,17.56,0,0,1,357.42,113.34Zm.75,5.43a12.76,12.76,0,0,0-11.58,7,16.85,16.85,0,0,0,0,14.71,13,13,0,0,0,4.72,5.17,12.54,12.54,0,0,0,6.86,1.91,12.73,12.73,0,0,0,6.89-1.87,13.26,13.26,0,0,0,4.72-5.1,15.47,15.47,0,0,0,1.73-7.41,15.64,15.64,0,0,0-1.73-7.48,12.73,12.73,0,0,0-11.61-6.9Z"/><path class="cls-2" d="M417.06,113.93a2.93,2.93,0,0,1,2.14.85,2.81,2.81,0,0,1,.86,2.09v32.35a3,3,0,0,1-.86,2.13,2.91,2.91,0,0,1-2.14.88,2.85,2.85,0,0,1-2.17-.88,3,3,0,0,1-.83-2.13v-7l1.43-.15a7,7,0,0,1-1.13,3.52,13.88,13.88,0,0,1-3.07,3.56,16.71,16.71,0,0,1-4.61,2.72A15.44,15.44,0,0,1,401,153a16.6,16.6,0,0,1-9.15-2.6,18.57,18.57,0,0,1-6.4-7.08,23.31,23.31,0,0,1,0-20.44,18,18,0,0,1,6.4-7,16.62,16.62,0,0,1,9-2.54,17.21,17.21,0,0,1,6,1,16.1,16.1,0,0,1,4.84,2.79,13.78,13.78,0,0,1,3.22,3.89A8.84,8.84,0,0,1,416,125.3l-1.95-.44v-8a2.87,2.87,0,0,1,3-2.94Zm-15.44,33.6a11.67,11.67,0,0,0,6.63-1.91,12.8,12.8,0,0,0,4.5-5.17,17.51,17.51,0,0,0,0-14.67,12.58,12.58,0,0,0-4.5-5.14,12.65,12.65,0,0,0-13.19,0,12.71,12.71,0,0,0-4.53,5.06,16,16,0,0,0-1.65,7.41,16.46,16.46,0,0,0,1.61,7.37,13,13,0,0,0,4.5,5.17A11.67,11.67,0,0,0,401.62,147.53Z"/><path class="cls-2" d="M432.75,152.23a2.89,2.89,0,0,1-2.13-.88,2.92,2.92,0,0,1-.86-2.13v-32a2.78,2.78,0,0,1,.86-2.09,3.18,3.18,0,0,1,4.31,0,2.87,2.87,0,0,1,.82,2.09v9.69l-.9-1.54a15.94,15.94,0,0,1,4.57-8.33,13.85,13.85,0,0,1,4.13-2.72,12.8,12.8,0,0,1,5.09-1,6.21,6.21,0,0,1,3,.77,2.41,2.41,0,0,1,1.39,2.17,2.88,2.88,0,0,1-.83,2.27,2.73,2.73,0,0,1-1.87.74,4.55,4.55,0,0,1-1.88-.41,5.61,5.61,0,0,0-2.24-.4,7.73,7.73,0,0,0-3.71,1,11.66,11.66,0,0,0-3.38,2.82,15.57,15.57,0,0,0-2.47,4.15,12.94,12.94,0,0,0-.94,4.95v17.83a3,3,0,0,1-.86,2.13A2.9,2.9,0,0,1,432.75,152.23Z"/><path class="cls-2" d="M484.25,97.94a3,3,0,0,1,2.14.84,2.84,2.84,0,0,1,.86,2.09v48.35a3,3,0,0,1-.86,2.13,2.91,2.91,0,0,1-2.14.88,2.85,2.85,0,0,1-2.17-.88,3,3,0,0,1-.82-2.13v-7l1.42-.51a7.52,7.52,0,0,1-1.12,3.7,14.18,14.18,0,0,1-3.08,3.63,16.48,16.48,0,0,1-4.61,2.79,14.88,14.88,0,0,1-5.73,1.1,16.8,16.8,0,0,1-9.11-2.57,18.11,18.11,0,0,1-6.44-7,23.37,23.37,0,0,1,0-20.47,17.86,17.86,0,0,1,6.41-7,16.57,16.57,0,0,1,9-2.54,17,17,0,0,1,5.92,1,15.93,15.93,0,0,1,4.83,2.79,14.29,14.29,0,0,1,3.26,3.89,8.58,8.58,0,0,1,1.2,4.25l-1.94-.44v-24a2.84,2.84,0,0,1,3-2.93Zm-15.44,49.59a11.93,11.93,0,0,0,6.64-1.87,12.63,12.63,0,0,0,4.49-5.14,17.67,17.67,0,0,0,0-14.78,12.71,12.71,0,0,0-4.49-5.1,12,12,0,0,0-6.64-1.87,11.83,11.83,0,0,0-6.55,1.87,13,13,0,0,0-4.54,5.1,17.22,17.22,0,0,0,0,14.71,13.12,13.12,0,0,0,4.54,5.17A11.55,11.55,0,0,0,468.81,147.53Z"/><path class="cls-2" d="M514.29,153a21.27,21.27,0,0,1-10.49-2.49,18,18,0,0,1-7-6.86,19.83,19.83,0,0,1-2.51-10.09,21.63,21.63,0,0,1,2.58-10.9,18.25,18.25,0,0,1,6.75-6.89,17.44,17.44,0,0,1,8.81-2.39,18.31,18.31,0,0,1,6.66,1.25,16.91,16.91,0,0,1,5.7,3.63,18.19,18.19,0,0,1,4,5.73,18.77,18.77,0,0,1,1.58,7.44,2.56,2.56,0,0,1-.9,2,3,3,0,0,1-2.1.81h-29.6l-1.35-5.06h28.85l-1.2,1v-1.61a9.52,9.52,0,0,0-2.06-5.17A12,12,0,0,0,517.7,120a12.39,12.39,0,0,0-5.28-1.17,13.29,13.29,0,0,0-4.46.77,10.6,10.6,0,0,0-4,2.49,12.72,12.72,0,0,0-2.84,4.44,17.47,17.47,0,0,0-1.09,6.53,15.4,15.4,0,0,0,1.76,7.48,13.15,13.15,0,0,0,4.91,5.1,14.08,14.08,0,0,0,7.34,1.87,14.32,14.32,0,0,0,4.58-.66,13.56,13.56,0,0,0,3.37-1.65,15.18,15.18,0,0,0,2.4-2,3.35,3.35,0,0,1,1.87-.66,2.48,2.48,0,0,1,2.55,2.5,2.78,2.78,0,0,1-1.2,2.2,18.68,18.68,0,0,1-5.7,4A17.54,17.54,0,0,1,514.29,153Z"/><path class="cls-2" d="M558.86,113.34q5.1,0,8,2.06a11.17,11.17,0,0,1,4.16,5.5,22.82,22.82,0,0,1,1.24,7.7v20.62a2.93,2.93,0,0,1-.87,2.13,2.87,2.87,0,0,1-2.13.88,2.91,2.91,0,0,1-2.14-.88,3,3,0,0,1-.86-2.13V128.75a14,14,0,0,0-.86-5,7.63,7.63,0,0,0-2.85-3.59,9.54,9.54,0,0,0-5.43-1.36,12.4,12.4,0,0,0-5.77,1.36,11.52,11.52,0,0,0-4.2,3.59,8.55,8.55,0,0,0-1.57,5v20.47a2.93,2.93,0,0,1-.87,2.13,2.87,2.87,0,0,1-2.13.88,2.91,2.91,0,0,1-2.14-.88,3,3,0,0,1-.86-2.13v-32a2.82,2.82,0,0,1,.86-2.09,3,3,0,0,1,2.14-.84,2.86,2.86,0,0,1,3,2.93v5.21l-1.5,1.62a10.25,10.25,0,0,1,1.72-3.86,15.61,15.61,0,0,1,3.37-3.48,17.2,17.2,0,0,1,4.5-2.46A14.78,14.78,0,0,1,558.86,113.34Z"/><path class="cls-1" d="M31.1,151.42a4.32,4.32,0,0,1-4.37-4.27c0-16.82,3.94-28.8,11.72-35.61a21.84,21.84,0,0,1,15.7-5.6A4.29,4.29,0,0,1,58,110.66a4.36,4.36,0,0,1-4.76,3.78,13.06,13.06,0,0,0-9.13,3.61c-5.66,5.1-8.65,15.17-8.65,29.1A4.31,4.31,0,0,1,31.1,151.42Z"/><path class="cls-1" d="M31.1,151.42a4.32,4.32,0,0,1-4.37-4.27c0-13.93-3-24-8.65-29.1a13,13,0,0,0-9.14-3.61,4.38,4.38,0,0,1-4.73-3.84A4.27,4.27,0,0,1,8,105.94a21.85,21.85,0,0,1,15.7,5.6c7.78,6.81,11.72,18.79,11.72,35.61A4.31,4.31,0,0,1,31.1,151.42Z"/><path class="cls-1" d="M102,151.42a4.32,4.32,0,0,1-4.37-4.27c0-16.82,4-28.8,11.73-35.61a21.83,21.83,0,0,1,15.69-5.6,4.29,4.29,0,0,1,3.86,4.72,4.37,4.37,0,0,1-4.77,3.78,13.08,13.08,0,0,0-9.13,3.61c-5.65,5.1-8.64,15.17-8.64,29.1A4.32,4.32,0,0,1,102,151.42Z"/><path class="cls-1" d="M102,151.42a4.32,4.32,0,0,1-4.37-4.27c0-13.93-3-24-8.64-29.1a13.05,13.05,0,0,0-9.14-3.61,4.38,4.38,0,0,1-4.74-3.84A4.27,4.27,0,0,1,79,105.94a21.83,21.83,0,0,1,15.69,5.6c7.78,6.81,11.73,18.79,11.73,35.61A4.32,4.32,0,0,1,102,151.42Z"/><path class="cls-1" d="M102,123.83a4.32,4.32,0,0,1-4.37-4.27c0-16.82,4-28.8,11.73-35.62a21.85,21.85,0,0,1,15.69-5.59,4.29,4.29,0,0,1,3.86,4.72,4.37,4.37,0,0,1-4.77,3.78A13.08,13.08,0,0,0,115,90.46c-5.65,5.1-8.64,15.16-8.64,29.1A4.32,4.32,0,0,1,102,123.83Z"/><path class="cls-1" d="M102,123.83a4.32,4.32,0,0,1-4.37-4.27c0-13.94-3-24-8.64-29.1a13.05,13.05,0,0,0-9.14-3.61A4.38,4.38,0,0,1,75.14,83,4.27,4.27,0,0,1,79,78.35,21.83,21.83,0,0,1,94.67,84c7.78,6.81,11.73,18.79,11.73,35.61A4.32,4.32,0,0,1,102,123.83Z"/><path class="cls-1" d="M102.29,151.7a5.4,5.4,0,0,1-5.46-5.34V62a5.46,5.46,0,0,1,10.91,0v84.34A5.4,5.4,0,0,1,102.29,151.7Z"/><path class="cls-1" d="M180.12,0C285-.74,390.6,11.36,491.31,41.18c19.77,6.13,40.42,13.22,59.49,21.23,3.19,1.31,8.5,3.48,11.64,5L574,72.56a4,4,0,1,1-3.43,7.22l-11.33-5.22c-3.15-1.5-8.12-3.64-11.43-5C463.09,33.84,371.59,16.81,280.38,8.4c-25-2.21-50-3.7-75.11-4.27C196.91,4,188.52,3.83,180.2,4A2,2,0,0,1,180.12,0Z"/></svg>