<svg width="33" height="32" viewBox="0 0 33 32" fill="none" xmlns="http://www.w3.org/2000/svg">
<path d="M26.7963 23.3333C26.7963 25.1743 25.307 26.6667 23.4699 26.6667C21.6328 26.6667 20.1435 25.1743 20.1435 23.3333C20.1435 21.4924 21.6328 20 23.4699 20C25.307 20 26.7963 21.4924 26.7963 23.3333Z" stroke="white" stroke-width="1.5"/>
<path d="M13.4907 23.3333C13.4907 25.1743 12.0014 26.6667 10.1643 26.6667C8.32717 26.6667 6.83789 25.1743 6.83789 23.3333C6.83789 21.4924 8.32717 20 10.1643 20C12.0014 20 13.4907 21.4924 13.4907 23.3333Z" stroke="white" stroke-width="1.5"/>
<path d="M20.1435 23.3334H13.4907M26.7963 23.3334H27.8118C28.1044 23.3334 28.2507 23.3334 28.3737 23.318C29.2803 23.2048 29.9944 22.4892 30.1074 21.5807C30.1227 21.4575 30.1227 21.3108 30.1227 21.0176V17.3334C30.1227 12.5469 26.2506 8.66671 21.4741 8.66671M20.8088 20.6667V9.33337C20.8088 7.44776 20.8088 6.50495 20.2243 5.91916C19.6396 5.33337 18.6988 5.33337 16.8171 5.33337H7.50316C5.62147 5.33337 4.68061 5.33337 4.09604 5.91916C3.51147 6.50495 3.51147 7.44776 3.51147 9.33337V20C3.51147 21.2462 3.51147 21.8692 3.77886 22.3334C3.95403 22.6374 4.20599 22.8899 4.5094 23.0654C4.97254 23.3334 5.59431 23.3334 6.83788 23.3334" stroke="white" stroke-width="1.5" stroke-linecap="round" stroke-linejoin="round"/>
<path d="M9.49896 9.33337V14.6664M14.8212 9.33337V14.6664" stroke="white" stroke-width="1.5" stroke-linecap="round" stroke-linejoin="round"/>
</svg>
