<svg width="33" height="32" viewBox="0 0 33 32" fill="none" xmlns="http://www.w3.org/2000/svg">
<path d="M5.81848 15.9232C4.55708 13.719 3.94801 11.9193 3.58077 10.0949C3.03761 7.39673 4.2806 4.76104 6.33974 3.07925C7.21002 2.36847 8.20765 2.61132 8.72227 3.53649L9.88409 5.62517C10.805 7.28072 11.2654 8.10848 11.1741 8.98608C11.0828 9.86368 10.4618 10.5784 9.21986 12.008L5.81848 15.9232ZM5.81848 15.9232C8.37168 20.3844 12.3784 24.4017 16.8355 26.9632M16.8355 26.9632C19.035 28.2272 20.831 28.8376 22.6516 29.2056C25.3442 29.7498 27.9744 28.5042 29.6527 26.4408C30.362 25.5688 30.1197 24.569 29.1964 24.0533L27.1121 22.889C25.4599 21.9662 24.6339 21.5049 23.7581 21.5964C22.8824 21.6878 22.1691 22.3101 20.7426 23.5546L16.8355 26.9632Z" stroke="white" stroke-width="1.5" stroke-linejoin="round"/>
</svg>
