<svg width="33" height="32" viewBox="0 0 33 32" fill="none" xmlns="http://www.w3.org/2000/svg">
<path d="M3.42621 17.9048V10.6666H30.0374V17.9048C30.0374 23.2922 30.0374 25.986 28.3054 27.6596C26.5733 29.3333 23.7857 29.3333 18.2102 29.3333H15.2534C9.67802 29.3333 6.89032 29.3333 5.15827 27.6596C3.42621 25.986 3.42621 23.2922 3.42621 17.9048Z" stroke="white" stroke-width="1.5" stroke-linecap="round" stroke-linejoin="round"/>
<path d="M3.42621 10.6666L4.7056 7.58971C5.69782 5.20339 6.19395 4.01023 7.19955 3.33843C8.20515 2.66663 9.49506 2.66663 12.0749 2.66663H21.3888C23.9686 2.66663 25.2585 2.66663 26.2641 3.33843C27.2697 4.01023 27.7658 5.20339 28.7581 7.58971L30.0374 10.6666" stroke="white" stroke-width="1.5" stroke-linecap="round"/>
<path d="M16.7318 10.6666V2.66663" stroke="white" stroke-width="1.5" stroke-linecap="round"/>
<path d="M14.0707 16H19.3929" stroke="white" stroke-width="1.5" stroke-linecap="round"/>
</svg>
