<svg width="19" height="19" viewBox="0 0 19 19" fill="none" xmlns="http://www.w3.org/2000/svg">
<path d="M1.81641 4.64917L7.18461 7.69083C9.16367 8.81217 9.99984 8.81217 11.9789 7.69083L17.3471 4.64917" stroke="#A3A1BF" stroke-width="1.5" stroke-linejoin="round"/>
<path d="M1.82865 10.4543C1.87941 12.8348 1.9048 14.025 2.78316 14.9068C3.66152 15.7885 4.88398 15.8191 7.3289 15.8806C8.83574 15.9184 10.3278 15.9184 11.8346 15.8806C14.2796 15.8191 15.502 15.7885 16.3804 14.9068C17.2587 14.025 17.2841 12.8348 17.3348 10.4543C17.3512 9.68885 17.3512 8.928 17.3348 8.16257C17.2841 5.78208 17.2587 4.59183 16.3804 3.71013C15.502 2.82843 14.2796 2.79772 11.8346 2.73628C10.3278 2.69842 8.83574 2.69842 7.32889 2.73628C4.88398 2.7977 3.66152 2.82841 2.78315 3.71012C1.90479 4.59182 1.87941 5.78207 1.82864 8.16257C1.81232 8.928 1.81233 9.68885 1.82865 10.4543Z" stroke="#A3A1BF" stroke-width="1.5" stroke-linejoin="round"/>
</svg>
