<svg width="24" height="28" viewBox="0 0 24 28" fill="none" xmlns="http://www.w3.org/2000/svg">
<path d="M6.57757 17.8725C5.1628 18.8403 1.45336 20.8166 3.71266 23.2897C4.81631 24.4977 6.04549 25.3617 7.59087 25.3617H16.4091C17.9545 25.3617 19.1837 24.4977 20.2873 23.2897C22.5466 20.8166 18.8372 18.8403 17.4224 17.8725C14.1048 15.6028 9.89519 15.6028 6.57757 17.8725Z" stroke="white" stroke-width="1.5" stroke-linecap="round" stroke-linejoin="round"/>
<path d="M16.5 7.55319C16.5 10.4086 14.4853 12.7234 12 12.7234C9.51472 12.7234 7.5 10.4086 7.5 7.55319C7.5 4.69776 9.51472 2.38298 12 2.38298C14.4853 2.38298 16.5 4.69776 16.5 7.55319Z" stroke="white" stroke-width="1.5"/>
</svg>
