<svg width="25" height="24" viewBox="0 0 25 24" fill="none" xmlns="http://www.w3.org/2000/svg">
<path d="M17.5 7L7.5 7" stroke="#7A7A7A" stroke-width="1.5" stroke-linecap="round" stroke-linejoin="round"/>
<path d="M17.5 11L7.5 11" stroke="#7A7A7A" stroke-width="1.5" stroke-linecap="round" stroke-linejoin="round"/>
<path d="M12.5 15L7.5 15" stroke="#7A7A7A" stroke-width="1.5" stroke-linecap="round" stroke-linejoin="round"/>
<path d="M19.5 2H5.5C4.39543 2 3.5 2.89543 3.5 4V19.1543C3.5 20.5396 4.87412 21.5053 6.17744 21.0361L7.7392 20.4739C8.22721 20.2982 8.76439 20.319 9.23737 20.5318L11.6793 21.6307C12.2012 21.8655 12.7988 21.8655 13.3207 21.6307L15.7626 20.5318C16.2356 20.319 16.7728 20.2982 17.2608 20.4739L18.8226 21.0361C20.1259 21.5053 21.5 20.5396 21.5 19.1543V4C21.5 2.89543 20.6046 2 19.5 2Z" stroke="#7A7A7A" stroke-width="1.5" stroke-linecap="round"/>
</svg>
