<svg width="16" height="16" viewBox="0 0 16 16" fill="none" xmlns="http://www.w3.org/2000/svg">
<path d="M7.66668 5.33337H13.464C13.8805 5.33337 14.0888 5.33337 14.2413 5.4006C14.9157 5.69797 14.6142 6.44721 14.5007 6.98564C14.4803 7.08237 14.414 7.16471 14.3211 7.20884C13.9631 7.37871 13.7589 7.66097 13.6443 8.00004M5.00001 5.33337H2.53599C2.11949 5.33337 1.91124 5.33337 1.75876 5.4006C1.08428 5.69797 1.38584 6.44721 1.49931 6.98564C1.51969 7.08237 1.58599 7.16471 1.67895 7.20884C2.0645 7.39177 2.33453 7.73877 2.40539 8.14231L2.80045 10.3919C2.97427 11.3817 3.03369 12.7962 3.90108 13.4935C4.53748 14 5.45443 14 7.28835 14H7.66668" stroke="white" stroke-width="1.5" stroke-linecap="round"/>
<path d="M9.33334 12.6667C9.33334 12.6667 10 12.6667 10.6667 14C10.6667 14 12.7843 10.6667 14.6667 10" stroke="white" stroke-width="1.5" stroke-linecap="round" stroke-linejoin="round"/>
<path d="M4.33334 7.33333L6.66668 2M10 2L11.6667 5.33333" stroke="white" stroke-width="1.5" stroke-linecap="round"/>
</svg>
