<svg width="16" height="17" viewBox="0 0 16 17" fill="none" xmlns="http://www.w3.org/2000/svg">
<path d="M9.15174 2.43965L10.3249 4.95331C10.4849 5.30322 10.9115 5.63885 11.2715 5.70311L13.3979 6.08159C14.7578 6.32439 15.0778 7.38128 14.0979 8.42387L12.4447 10.1948C12.1647 10.4948 12.0115 11.0732 12.0981 11.4874L12.5714 13.6797C12.9447 15.415 12.0847 16.0863 10.6516 15.1793L8.65848 13.9154C8.29854 13.6869 7.70528 13.6869 7.33861 13.9154L5.34552 15.1793C3.91901 16.0863 3.05244 15.4078 3.42574 13.6797L3.89902 11.4874C3.98567 11.0732 3.83236 10.4948 3.55238 10.1948L1.89924 8.42387C0.92601 7.38128 1.23931 6.32439 2.59916 6.08159L4.72559 5.70311C5.07888 5.63885 5.5055 5.30322 5.66548 4.95331L6.83868 2.43965C7.47861 1.0757 8.51848 1.0757 9.15174 2.43965Z" stroke="#EBA452" stroke-width="1.5" stroke-linecap="round" stroke-linejoin="round"/>
</svg>
