<svg width="24" height="24" viewBox="0 0 24 24" fill="none" xmlns="http://www.w3.org/2000/svg">
<path d="M8 16H15.2632C19.7508 16 20.4333 13.1808 21.261 9.06904C21.4998 7.88308 21.6192 7.2901 21.3321 6.89503C21.1034 6.58036 20.7077 6.51633 20 6.5033" stroke="#141B34" stroke-width="1.5" stroke-linecap="round"/>
<path d="M9 6.5H17M13 10.5V2.5" stroke="#141B34" stroke-width="1.5" stroke-linecap="round"/>
<path d="M8 16L5.37873 3.51493C5.15615 2.62459 4.35618 2 3.43845 2H2.5" stroke="#141B34" stroke-width="1.5" stroke-linecap="round"/>
<path d="M8.88 16H8.46857C7.10522 16 6 17.1513 6 18.5714C6 18.8081 6.1842 19 6.41143 19H17.5" stroke="#141B34" stroke-width="1.5" stroke-linecap="round" stroke-linejoin="round"/>
<path d="M10.5 22C11.3284 22 12 21.3284 12 20.5C12 19.6716 11.3284 19 10.5 19C9.67157 19 9 19.6716 9 20.5C9 21.3284 9.67157 22 10.5 22Z" stroke="#141B34" stroke-width="1.5"/>
<path d="M17.5 22C18.3284 22 19 21.3284 19 20.5C19 19.6716 18.3284 19 17.5 19C16.6716 19 16 19.6716 16 20.5C16 21.3284 16.6716 22 17.5 22Z" stroke="#141B34" stroke-width="1.5"/>
</svg>
