<svg width="17" height="16" viewBox="0 0 17 16" fill="none" xmlns="http://www.w3.org/2000/svg">
<path d="M5.75783 10.6666H10.6C13.5917 10.6666 14.0467 8.78718 14.5985 6.04603C14.7577 5.25539 14.8373 4.86007 14.6459 4.59669C14.4545 4.33331 14.0876 4.33331 13.3539 4.33331H4.4245" stroke="#7A7A7A" stroke-width="1.5" stroke-linecap="round"/>
<path d="M5.75782 10.6666L4.01031 2.34327C3.86192 1.74971 3.32861 1.33331 2.71679 1.33331H2.09116" stroke="#7A7A7A" stroke-width="1.5" stroke-linecap="round"/>
<path d="M6.3445 10.6667H6.07021C5.16131 10.6667 4.4245 11.4342 4.4245 12.381C4.4245 12.5388 4.5473 12.6667 4.69879 12.6667H12.0912" stroke="#7A7A7A" stroke-width="1.5" stroke-linecap="round" stroke-linejoin="round"/>
<path d="M7.4245 14.6667C7.97678 14.6667 8.4245 14.219 8.4245 13.6667C8.4245 13.1144 7.97678 12.6667 7.4245 12.6667C6.87221 12.6667 6.4245 13.1144 6.4245 13.6667C6.4245 14.219 6.87221 14.6667 7.4245 14.6667Z" stroke="#7A7A7A" stroke-width="1.5"/>
<path d="M12.0912 14.6667C12.6434 14.6667 13.0912 14.219 13.0912 13.6667C13.0912 13.1144 12.6434 12.6667 12.0912 12.6667C11.5389 12.6667 11.0912 13.1144 11.0912 13.6667C11.0912 14.219 11.5389 14.6667 12.0912 14.6667Z" stroke="#7A7A7A" stroke-width="1.5"/>
</svg>
